TITLE "Channel 1"
    TITLE "N"
    INDEX 01 00:00:02
  TRACK 02 AUDIO
    TITLE "B7/D#"
    INDEX 01 00:01:02
  TRACK 03 AUDIO
    TITLE "A"
    INDEX 01 01:18:02
TITLE "Channel 2"
  TRACK 01 AUDIO
    TITLE "Z"
    INDEX 01 00:00:02
  TRACK 02 AUDIO
    TITLE "A"
    INDEX 01 00:10:02
